<svg width="186" height="29" fill="none" xmlns="http://www.w3.org/2000/svg"><g filter="url(#a)"><path d="M19.238 14.828c0 .649-.12 1.207-.363 1.676a3.61 3.61 0 0 1-.95 1.195 5.236 5.236 0 0 1-1.382.809 9.934 9.934 0 0 1-1.617.48c-.563.117-1.13.196-1.7.235a20.365 20.365 0 0 1-3.094 0 14.902 14.902 0 0 1-1.546-.176c-.516-.086-1.024-.2-1.524-.34a9.044 9.044 0 0 1-1.417-.55L5.62 3.061c.438-.18.902-.34 1.395-.48.492-.148.992-.27 1.5-.363a15.145 15.145 0 0 1 1.535-.223 13.5 13.5 0 0 1 3.152.023c.57.07 1.117.188 1.64.352a7.062 7.062 0 0 1 1.466.645c.453.257.847.578 1.183.96.344.383.61.829.797 1.337.195.507.293 1.093.293 1.757 0 .438-.063.848-.188 1.23a3.417 3.417 0 0 1-.538 1.032 3.43 3.43 0 0 1-.856.785 3.799 3.799 0 0 1-1.137.469c.508.133.969.328 1.383.586.422.258.777.57 1.067.937a4 4 0 0 1 .68 1.243c.163.46.245.953.245 1.476Zm-5.953-6.68c0-.226-.047-.418-.14-.574a1.244 1.244 0 0 0-.352-.398 1.326 1.326 0 0 0-.445-.223 1.485 1.485 0 0 0-.422-.07c-.156 0-.309.023-.457.07a4.12 4.12 0 0 0-.434.164l-.07 2.602c.18 0 .402-.016.668-.047a2.79 2.79 0 0 0 .762-.2c.25-.109.46-.265.632-.468.172-.211.258-.496.258-.856Zm-1.664 3.82a3.01 3.01 0 0 0-.656.071l-.047 2.672c.117.023.23.047.34.07.117.016.23.024.34.024.164 0 .343-.016.539-.047a1.75 1.75 0 0 0 .55-.211c.172-.11.313-.254.422-.434.118-.18.176-.418.176-.715 0-.296-.058-.539-.176-.726a1.219 1.219 0 0 0-.41-.434 1.343 1.343 0 0 0-.539-.21 2.77 2.77 0 0 0-.539-.06Zm21.094-2.437c0 .68-.047 1.36-.14 2.04a48.48 48.48 0 0 0-3.985.421l-3.961.563c.203.562.52 1.011.95 1.347.437.336.956.504 1.558.504.312 0 .652-.058 1.02-.176a8.853 8.853 0 0 0 1.113-.433c.367-.18.718-.371 1.054-.574.336-.204.625-.387.867-.551l-.562 5.32a5.098 5.098 0 0 1-.996.598 6.602 6.602 0 0 1-1.102.398c-.383.102-.77.176-1.16.223a9.63 9.63 0 0 1-1.148.07 6.75 6.75 0 0 1-2.121-.316 6.427 6.427 0 0 1-1.747-.88 6.73 6.73 0 0 1-1.359-1.347 7.841 7.841 0 0 1-.973-1.687 9.743 9.743 0 0 1-.585-1.934 10.73 10.73 0 0 1-.2-2.062c0-.727.067-1.453.2-2.18a11.12 11.12 0 0 1 .597-2.098 9.125 9.125 0 0 1 1.02-1.863 7.362 7.362 0 0 1 1.441-1.512 6.43 6.43 0 0 1 1.852-1.007c.695-.243 1.46-.364 2.297-.364.695 0 1.328.098 1.898.293.578.188 1.09.453 1.535.797.453.336.844.738 1.172 1.207.336.469.61.984.82 1.547.22.555.38 1.145.48 1.77.11.617.165 1.246.165 1.886Zm-4.688-.61a3.29 3.29 0 0 0-.07-.667 2.04 2.04 0 0 0-.234-.633 1.285 1.285 0 0 0-.41-.457 1.067 1.067 0 0 0-.645-.187c-.313 0-.59.085-.832.257a2.357 2.357 0 0 0-.61.633c-.171.25-.312.524-.421.82-.11.297-.192.57-.246.82l3.468-.327v-.258ZM45.5 13c0 1.07-.188 1.996-.563 2.777a5.273 5.273 0 0 1-1.523 1.922c-.64.5-1.395.871-2.262 1.113a10.52 10.52 0 0 1-2.777.352c-.383 0-.805-.05-1.266-.152a16.57 16.57 0 0 1-1.382-.375c-.47-.157-.922-.32-1.36-.492-.43-.18-.812-.348-1.148-.504l.515-4.594a8.39 8.39 0 0 0 2.203.914 9.83 9.83 0 0 0 2.93.293c.211-.016.41-.05.598-.106.195-.062.36-.152.492-.27.133-.116.2-.284.2-.503a.532.532 0 0 0-.141-.375.958.958 0 0 0-.364-.258 1.905 1.905 0 0 0-.504-.152 4.704 4.704 0 0 0-.55-.082 5.848 5.848 0 0 0-.504-.024h-.375a5.14 5.14 0 0 1-1.84-.316 4.205 4.205 0 0 1-1.418-.89 4.13 4.13 0 0 1-.914-1.407 4.973 4.973 0 0 1-.328-1.84c0-.922.183-1.746.55-2.472a5.795 5.795 0 0 1 1.489-1.864 6.748 6.748 0 0 1 2.144-1.183 7.706 7.706 0 0 1 2.496-.41c.383 0 .778.015 1.184.046a11.364 11.364 0 0 1 2.39.41c.383.11.747.247 1.09.41l-.445 4.759c-.531-.18-1.09-.329-1.676-.446a8.027 8.027 0 0 0-1.699-.187 9.91 9.91 0 0 0-.398.011c-.157 0-.325.012-.504.036a4.328 4.328 0 0 0-.528.082 1.99 1.99 0 0 0-.48.164.874.874 0 0 0-.34.258.557.557 0 0 0-.117.386c.008.172.07.305.188.399.124.093.28.164.468.21.196.04.407.06.633.06.234 0 .465-.005.691-.012.227-.016.438-.028.633-.036a3.4 3.4 0 0 1 .48-.011c.626.039 1.188.171 1.688.398s.922.527 1.266.902c.351.375.617.825.797 1.348.187.516.281 1.086.281 1.711ZM58.39 2.477l-.117 4.968-3.492.14-.422 10.876-4.945.258-.445-10.875-3.492.187.14-5.531 12.774-.023Zm81.071 5.718c0 .758-.113 1.43-.34 2.016a4.996 4.996 0 0 1-.937 1.547 5.53 5.53 0 0 1-1.383 1.113 9.343 9.343 0 0 1-1.711.738c-.602.188-1.227.329-1.875.422-.649.086-1.285.133-1.91.14v4.993h-5.461v-2.602c.008-.843.011-1.68.011-2.507.008-.836.012-1.676.012-2.52l.024-2.613a118.5 118.5 0 0 0 .011-2.86c-.007-.953.012-1.914.059-2.882a20.97 20.97 0 0 1 6.094-.891c.601 0 1.203.05 1.804.152a8.339 8.339 0 0 1 1.723.457 7.337 7.337 0 0 1 1.535.797c.477.313.887.688 1.231 1.125.343.438.613.938.808 1.5.203.563.305 1.188.305 1.875Zm-5.203.399c0-.508-.156-.903-.469-1.184-.305-.289-.703-.433-1.195-.433a3.04 3.04 0 0 0-.516.046 4.559 4.559 0 0 0-.492.094l-.141 3.422c.11.016.215.024.317.024h.316c.281 0 .551-.047.809-.141.265-.094.5-.227.703-.399.203-.18.363-.386.48-.62.125-.243.188-.512.188-.81Zm16.148 4.195-.492 5.203-9.867.774.375-16.735h6.094l-.868 10.758h4.758Zm15.328 5.203-5.812.75-.703-2.648h-2.672l-.586 2.648-5.977-.586 4.664-15.61 6.516-.327 4.57 15.773Zm-6.937-5.484-.891-4.078-.867 4.078h1.758Zm21.726.562c0 .883-.011 1.758-.035 2.625-.015.86-.043 1.727-.082 2.602l-6.75-.117a95.26 95.26 0 0 0 .61-4.137 33.86 33.86 0 0 0 .257-4.184 14.958 14.958 0 0 0-.058-1.254 11.856 11.856 0 0 0-.106-.878 4.877 4.877 0 0 0-.175-.832 2.037 2.037 0 0 0-.27-.61c-.102-.164-.226-.246-.375-.246-.266 0-.492.078-.68.234a1.96 1.96 0 0 0-.457.61 3.88 3.88 0 0 0-.281.82 9.48 9.48 0 0 0-.164.914 18.77 18.77 0 0 0-.07.867c-.008.266-.012.485-.012.657-.039 1.382-.07 2.757-.094 4.125a371.504 371.504 0 0 1-.093 4.125l-5.977.257c.156-2.757.305-5.5.445-8.226.149-2.727.266-5.469.352-8.227l5.531-.28-.047 1.874c.219-.266.453-.516.703-.75.258-.234.532-.434.821-.598.289-.171.593-.304.914-.398a3.467 3.467 0 0 1 1.031-.152c.664 0 1.246.109 1.746.328.5.219.93.515 1.289.89.359.375.66.82.902 1.336.243.508.438 1.051.586 1.63.149.577.262 1.183.34 1.816.078.625.129 1.242.153 1.851.031.61.046 1.2.046 1.77v1.558Z" fill="#333"/><path d="m76.156 2.477-.117 4.968-3.492.14-.422 10.876-4.945.258-.446-10.875-3.492.187.14-5.531 12.774-.023Zm14.918 7.546c0 .711-.082 1.399-.246 2.063a7.908 7.908 0 0 1-.715 1.851 7.54 7.54 0 0 1-1.125 1.594 7.052 7.052 0 0 1-1.488 1.23 7.312 7.312 0 0 1-1.793.81 7.39 7.39 0 0 1-2.063.28c-.703 0-1.375-.09-2.015-.269a7.815 7.815 0 0 1-1.781-.75 7.606 7.606 0 0 1-1.512-1.172 7.796 7.796 0 0 1-1.148-1.523 8.337 8.337 0 0 1-.739-1.805 8.089 8.089 0 0 1-.012-3.996 8.244 8.244 0 0 1 .704-1.852 8.151 8.151 0 0 1 1.125-1.593 7.454 7.454 0 0 1 1.465-1.254 7.16 7.16 0 0 1 1.769-.82 6.757 6.757 0 0 1 2.004-.294c1.133 0 2.164.176 3.094.528.937.351 1.734.855 2.39 1.511a6.567 6.567 0 0 1 1.535 2.368c.368.922.551 1.953.551 3.093Zm-5.203.305c0-.336-.05-.66-.152-.973a2.52 2.52 0 0 0-.422-.843 2.082 2.082 0 0 0-.703-.598 1.88 1.88 0 0 0-.95-.234c-.367 0-.695.066-.984.199a2.276 2.276 0 0 0-1.219 1.36 2.858 2.858 0 0 0-.164.972c0 .328.047.656.141.984.094.328.234.625.422.89.187.267.418.481.691.645.281.165.606.247.973.247s.695-.07.984-.211c.297-.149.547-.344.75-.586.203-.25.36-.535.469-.856.11-.32.164-.652.164-.996ZM105.863 2.5c-.351 2.75-.652 5.488-.902 8.215-.25 2.719-.488 5.457-.715 8.215l-4.805.351.211-1.804c-.156.18-.34.335-.55.468a3.22 3.22 0 0 1-.657.328 4.466 4.466 0 0 1-.726.176 4.51 4.51 0 0 1-.715.035 4.017 4.017 0 0 1-1.5-.304 5.224 5.224 0 0 1-1.29-.797 6.519 6.519 0 0 1-1.054-1.16 8.551 8.551 0 0 1-.797-1.395 8.856 8.856 0 0 1-.492-1.5c-.11-.508-.164-1-.164-1.476 0-.704.012-1.43.035-2.18.031-.758.082-1.516.152-2.274.07-.757.16-1.507.27-2.25.117-.742.262-1.453.434-2.132.953.046 1.91.09 2.87.129.962.039 1.919.05 2.872.035l-.54 2.05c-.171.68-.327 1.368-.468 2.063-.14.687-.254 1.379-.34 2.074a17.168 17.168 0 0 0-.129 2.11c0 .164.008.398.024.703.015.304.054.605.117.902.07.297.172.559.305.785.14.219.335.328.585.328.297 0 .563-.125.797-.375.235-.258.442-.601.621-1.03.18-.43.332-.927.457-1.49.133-.562.243-1.148.329-1.757.093-.617.168-1.238.222-1.863.055-.625.094-1.211.118-1.758.031-.555.05-1.05.058-1.488.016-.438.024-.778.024-1.02a8.495 8.495 0 0 0-.047-.914 99.731 99.731 0 0 0 3.023.047h1.172a31.81 31.81 0 0 0 1.195-.047Zm14.438 5.203c0 .61-.055 1.164-.164 1.664a4.892 4.892 0 0 1-.492 1.36 4.91 4.91 0 0 1-.879 1.148 7.83 7.83 0 0 1-1.301 1.008l2.789 4.969-5.274 1.03-1.804-4.991-1.453.046-.211 4.876h-5.039c.039-1.782.074-3.555.105-5.32.039-1.766.082-3.54.129-5.321l.047-2.672c.016-.883.047-1.773.094-2.672a15.34 15.34 0 0 1 1.617-.504 14.268 14.268 0 0 1 1.594-.304 16.176 16.176 0 0 1 1.629-.153 30.189 30.189 0 0 1 1.699-.047c.89 0 1.75.125 2.578.375.836.243 1.574.61 2.215 1.102a5.495 5.495 0 0 1 1.535 1.84c.39.734.586 1.59.586 2.566Zm-5.25.375a2.76 2.76 0 0 0-.141-.902 1.844 1.844 0 0 0-.398-.703 1.682 1.682 0 0 0-.657-.47 2.189 2.189 0 0 0-.914-.175c-.156 0-.308.012-.457.035a2.646 2.646 0 0 0-.433.082l-.188 4.36h.282c.335 0 .675-.043 1.019-.13.352-.085.664-.218.938-.398.281-.18.507-.41.679-.691.18-.281.27-.617.27-1.008Z" fill="#EC1F46"/><path d="m18.875 16.504-.889-.46-.005.013.894.447Zm-2.332 2.004.367.93.007-.003-.374-.927Zm-3.316.715-.069-.998.069.998Zm-3.094 0 .074-.998h-.014l-.06.998Zm-3.07-.516-.285.959.007.002.007.002.27-.963Zm-1.418-.55h-1v.623l.559.274.44-.898ZM5.62 3.061l-.38-.925-.62.256v.671l1-.002Zm1.395-.48.274.962.007-.002.007-.003-.288-.957Zm1.5-.363.181.983.012-.002-.193-.981Zm1.535-.223.092.996h.007l.008-.002-.107-.994Zm3.152.024-.124.992h.002l.122-.992Zm3.106.996-.506.862.011.007.495-.87Zm1.183.96-.752.66.008.009.744-.668Zm.797 1.337-.938.346.005.012.933-.359ZM17 10.117l.532.847.007-.004.007-.005-.546-.838Zm-1.137.469-.234-.972-.019 1.94.253-.968Zm1.383.586-.528.849.007.004.521-.853Zm1.067.937-.786.619.008.01.777-.629Zm.68 1.243-.948.32.002.008.003.007.942-.335Zm-5.848-5.778-.869.496.006.01.005.009.857-.515Zm-.352-.398-.607.794.01.008.011.008.586-.81Zm-.445-.223-.288.958.013.004.275-.962Zm-1.313.164-.406-.914-.576.257-.018.63 1 .027Zm-.07 2.602-1-.027-.028 1.027h1.028v-1Zm1.43-.246.386.922.007-.003.007-.003-.4-.916Zm.632-.47.764.647.006-.007.006-.007-.776-.632Zm-2.062 3.036-.217-.976-.77.17-.013.788 1 .018Zm-.047 2.672-1-.018-.015.835.819.163.196-.98Zm.34.07-.21.978.039.008.039.006.132-.992Zm.879-.023.158.987.019-.003.019-.004-.196-.98Zm.55-.211.51.86.013-.008.014-.008-.537-.844Zm.422-.434-.837-.546-.009.013-.008.013.854.52Zm0-1.441-.863.504.007.013.008.013.848-.53Zm-.41-.434-.554.832.014.01.014.008.526-.85Zm-.539-.21-.196.98.019.004.02.003.157-.988Zm6.078 2.8c0 .525-.098.919-.251 1.217l1.776.918c.33-.64.475-1.363.475-2.135h-2Zm-.257 1.229a2.638 2.638 0 0 1-.69.87l1.27 1.544a4.636 4.636 0 0 0 1.208-1.52l-1.788-.894Zm-.69.87a4.238 4.238 0 0 1-1.122.653l.748 1.855a6.23 6.23 0 0 0 1.644-.964l-1.27-1.544Zm-1.115.65a8.932 8.932 0 0 1-1.454.432l.408 1.958c.616-.128 1.21-.304 1.78-.529l-.734-1.86Zm-1.454.432c-.518.108-1.04.18-1.564.216l.137 1.995a13.524 13.524 0 0 0 1.835-.253l-.408-1.958Zm-1.565.216c-.542.038-1.046.056-1.512.056v2a24.1 24.1 0 0 0 1.65-.06l-.138-1.996Zm-1.512.056c-.458 0-.937-.018-1.438-.056l-.149 1.995c.547.04 1.075.061 1.587.061v-2Zm-1.452-.056c-.48-.03-.961-.084-1.443-.165l-.328 1.973c.55.092 1.1.154 1.65.188l.121-1.997ZM8.75 18.06c-.48-.08-.952-.185-1.417-.316l-.541 1.926c.535.15 1.078.271 1.63.363l.328-1.973Zm-1.403-.312a8.054 8.054 0 0 1-1.262-.49l-.881 1.796c.498.245 1.023.448 1.574.612l.57-1.918Zm-.702.407L6.62 3.06l-2 .003.024 15.094 2-.003ZM6 3.988c.4-.165.83-.313 1.29-.444L6.74 1.62a14.5 14.5 0 0 0-1.5.516L6 3.986Zm1.303-.449c.457-.137.921-.25 1.393-.337l-.363-1.967c-.544.1-1.08.23-1.607.39l.577 1.914ZM8.71 3.2c.483-.094.96-.163 1.434-.207L9.959 1c-.543.05-1.089.13-1.637.238L8.71 3.2Zm1.449-.209c.475-.05.931-.076 1.37-.076v-2c-.515 0-1.043.03-1.584.088l.214 1.988Zm1.37-.076c.512 0 1.029.033 1.551.098l.248-1.985a14.501 14.501 0 0 0-1.8-.113v2Zm1.553.098c.513.063 1 .168 1.464.313l.598-1.908a10.263 10.263 0 0 0-1.818-.39l-.244 1.985Zm1.464.313c.454.143.873.328 1.258.553l1.011-1.725a8.059 8.059 0 0 0-1.671-.736l-.598 1.908Zm1.27.56c.358.204.665.454.926.751l1.503-1.319a5.564 5.564 0 0 0-1.44-1.17l-.99 1.738Zm.933.76a3.1 3.1 0 0 1 .603 1.014l1.876-.693a5.105 5.105 0 0 0-.99-1.658l-1.489 1.337Zm.608 1.026c.142.372.226.832.226 1.4h2c0-.761-.112-1.473-.36-2.117l-1.866.717Zm.226 1.4c0 .34-.049.645-.138.92l1.901.62a4.95 4.95 0 0 0 .237-1.54h-2Zm-.138.92c-.091.28-.22.52-.381.731l1.585 1.22c.307-.4.539-.845.697-1.33l-1.901-.622Zm-.381.731a2.43 2.43 0 0 1-.609.557l1.092 1.676a4.43 4.43 0 0 0 1.102-1.013l-1.585-1.22Zm-.595.548a2.789 2.789 0 0 1-.839.344l.468 1.944c.518-.124.999-.32 1.435-.594L16.468 9.27Zm-.858 2.283c.418.11.785.267 1.108.468l1.057-1.698a5.982 5.982 0 0 0-1.659-.705l-.506 1.935Zm1.115.472c.326.2.59.434.802.703l1.571-1.237a4.987 4.987 0 0 0-1.33-1.172l-1.043 1.706Zm.81.713a3 3 0 0 1 .51.935l1.894-.643a5 5 0 0 0-.849-1.55l-1.555 1.258Zm.515.949c.123.346.188.724.188 1.141h2a5.37 5.37 0 0 0-.304-1.812l-1.884.67Zm-3.765-5.539c0-.364-.076-.743-.283-1.088L12.288 8.09c-.009-.015-.01-.022-.008-.016.002.007.006.03.006.075h2Zm-.272-1.07a2.244 2.244 0 0 0-.634-.713l-1.171 1.621a.25.25 0 0 1 .068.084l1.737-.992Zm-.613-.697a2.325 2.325 0 0 0-.778-.39l-.55 1.924a.326.326 0 0 1 .114.055l1.213-1.59Zm-.765-.386a2.476 2.476 0 0 0-.71-.112v2c.004 0 .046.001.135.028l.575-1.916Zm-.71-.112a2.51 2.51 0 0 0-.757.117l.602 1.907a.508.508 0 0 1 .156-.024v-2ZM11.169 6a5.134 5.134 0 0 0-.539.203l.812 1.828a3.01 3.01 0 0 1 .329-.124L11.168 6Zm-1.132 1.09-.07 2.602 1.998.054.07-2.602-1.998-.054Zm.929 3.629c.232 0 .497-.02.785-.054l-.234-1.986c-.244.028-.424.04-.551.04v2Zm.785-.054a3.809 3.809 0 0 0 1.031-.27l-.773-1.845a1.808 1.808 0 0 1-.492.129l.234 1.986Zm1.045-.276a2.72 2.72 0 0 0 .996-.74l-1.527-1.291a.72.72 0 0 1-.27.198l.801 1.833Zm1.008-.753c.358-.44.482-.972.482-1.488h-2c0 .204-.047.242-.033.224l1.55 1.264Zm-2.182 1.333c-.296 0-.588.03-.873.094l.434 1.952c.136-.03.282-.046.44-.046v-2Zm-1.656 1.053-.047 2.671 2 .036.047-2.672-2-.036Zm.757 3.67c.113.022.222.045.326.067l.42-1.956a26.223 26.223 0 0 0-.354-.073l-.392 1.961Zm.404.08c.157.021.315.033.472.033v-2c-.062 0-.131-.005-.208-.015l-.264 1.983Zm.472.033c.226 0 .46-.022.697-.06l-.316-1.975a2.41 2.41 0 0 1-.381.035v2Zm.735-.067a2.75 2.75 0 0 0 .863-.33l-1.017-1.722a.747.747 0 0 1-.238.091l.392 1.961Zm.891-.348c.306-.194.553-.45.74-.757l-1.709-1.04a.32.32 0 0 1-.104.11l1.073 1.688Zm.723-.73c.257-.394.338-.843.338-1.262h-2c0 .175-.035.203-.013.169l1.675 1.092Zm.338-1.262c0-.421-.082-.864-.328-1.256l-1.696 1.06c-.01-.017.024.025.024.196h2Zm-.312-1.23a2.219 2.219 0 0 0-.747-.78l-1.053 1.7a.235.235 0 0 1 .073.088l1.727-1.008Zm-.72-.762a2.344 2.344 0 0 0-.935-.366l-.316 1.975a.343.343 0 0 1 .143.055l1.109-1.664Zm-.897-.36a3.755 3.755 0 0 0-.735-.077v2c.086 0 .2.01.343.039l.392-1.961Zm20.218.524.064.998.815-.052.112-.81-.99-.136Zm-3.984.422.14.99h.006l-.146-.99Zm-3.961.563-.14-.99-1.218.173.417 1.156.94-.34Zm.95 1.347-.617.788.007.005.61-.793Zm2.577.329-.298-.955-.006.002.304.952Zm1.114-.434.424.906.007-.004.008-.004-.44-.898Zm1.921-1.125.995.105.226-2.14-1.781 1.207.56.828Zm-.562 5.32.61.793.34-.262.044-.426-.994-.105Zm-.996.598-.415-.91-.008.004.423.906Zm-7.277-.504-.597.803.007.005.007.005.582-.813Zm-2.32-11.309L19.11 6.4l-.004.01.93.367Zm1.019-1.863-.813-.582-.002.002.815.58Zm3.293-2.52-.33-.944-.003.001.333.944Zm4.195-.07-.324.946.008.003.008.002.308-.95Zm1.535.797-.61.792.007.006.008.005.595-.803Zm1.172 1.207-.82.574.007.009.813-.583Zm.82 1.547-.936.351.003.008.003.008.93-.367Zm.48 1.77-.986.16v.007l.002.007.985-.174Zm-4.593.609-.98.196v.007l.98-.203Zm-.234-.633-.88.476.008.014.008.014.864-.504Zm-.41-.457-.589.809.013.009.012.008.564-.826Zm-1.477.07.573.82.006-.004-.58-.816Zm-.61.633.825.567.004-.006.004-.006-.832-.555Zm-.667 1.64-.977-.213-.293 1.338 1.364-.129-.094-.995Zm3.468-.327.095.995.905-.085v-.91h-1Zm3.688.351c0 .634-.044 1.268-.131 1.903l1.98.273c.1-.725.15-1.45.15-2.176h-2Zm.795 1.041a49.47 49.47 0 0 0-4.066.431l.292 1.978a47.528 47.528 0 0 1 3.902-.413l-.128-1.996Zm-4.06.43a.178.178 0 0 1-.016.002l-.008.001-.008.002h-.007l-.008.002h-.008l-.008.002-.007.001-.008.001-.008.001-.008.001-.007.001-.008.002h-.008l-.007.002h-.008l-.008.002-.008.001-.008.001-.007.001-.008.001-.008.001-.007.002h-.008l-.008.002h-.008l-.007.002a.238.238 0 0 0-.016.002l-.008.001-.007.001-.008.001-.008.002h-.008l-.007.002h-.008l-.008.002-.008.001-.007.001-.008.001-.008.001-.007.001-.008.002h-.01l-.008.002h-.007l-.008.002a.178.178 0 0 0-.016.002l-.007.001-.008.001-.008.001-.008.001-.007.002h-.008l-.008.002H28l-.007.002-.008.001a.209.209 0 0 1-.023.003l-.008.001-.008.002h-.007l-.008.002h-.008l-.008.002-.007.001-.008.001a.209.209 0 0 1-.023.003l-.008.002h-.008l-.007.002h-.008l-.008.002-.008.001-.007.001-.008.001-.008.001-.008.001-.007.002h-.008l-.008.002h-.008l-.007.002-.008.001-.008.001-.008.001-.007.001-.008.001-.008.002h-.007l-.008.002h-.008l-.008.002-.007.001-.008.001-.008.001-.008.001-.007.001-.008.002a.238.238 0 0 0-.015.002h-.008a.238.238 0 0 0-.024.004l-.007.001-.008.001-.008.001-.007.002h-.008l-.008.002h-.008l-.007.002a.238.238 0 0 0-.024.003l-.007.001a.178.178 0 0 0-.016.002l-.008.002a.209.209 0 0 1-.015.002h-.008l-.008.002-.007.001-.008.001-.008.001-.007.001-.008.001-.008.002h-.008a.209.209 0 0 1-.015.003h-.008l-.008.002a.178.178 0 0 1-.015.002l-.008.001-.008.001-.007.002h-.008l-.008.002h-.007l-.008.002-.008.001-.008.001-.007.001-.008.001-.008.001-.008.002h-.007l-.008.002h-.008l-.008.002-.007.001-.008.001-.008.001-.008.001-.007.001-.008.002h-.008l-.007.002h-.008l-.008.002-.008.001-.007.001-.008.001-.008.001-.008.001a.178.178 0 0 0-.015.003h-.008l-.008.002h-.007l-.008.002a.178.178 0 0 0-.015.002l-.008.001-.008.001-.008.002h-.007l-.008.002h-.008l-.008.002-.007.001-.008.001-.008.001-.008.001-.007.001-.008.002h-.008l-.008.002h-.007a.178.178 0 0 1-.016.003.209.209 0 0 1-.023.003l-.008.001-.007.001-.008.002h-.008l-.008.002a.209.209 0 0 1-.015.002l-.008.001a.209.209 0 0 1-.023.003l-.008.001-.008.002h-.007l-.008.002h-.008l-.008.002-.007.001-.008.001-.008.001-.007.001-.008.001-.008.002h-.008l-.007.002h-.008l-.008.002-.008.001-.007.001-.008.001-.008.001-.008.001-.007.002h-.008l-.008.002h-.007l-.008.002-.008.001-.008.001-.007.001-.008.001-.008.001-.008.002a.178.178 0 0 0-.015.002h-.008l-.008.002-.007.001-.008.001-.008.001-.008.001-.007.001-.008.002a.238.238 0 0 0-.023.003h-.008a.178.178 0 0 0-.015.003l-.008.001-.008.001-.008.001-.007.002h-.008a.238.238 0 0 0-.016.003h-.007l-.008.002-.008.001-.008.001-.007.001a.209.209 0 0 1-.016.002l-.007.002a.209.209 0 0 1-.024.003h-.007l-.008.002-.008.001-.008.001-.007.001a.238.238 0 0 1-.016.002l-.008.002a.209.209 0 0 1-.023.003l-.008.001-.007.001-.008.001-.008.001-.007.001-.008.002h-.008l-.008.002h-.007l-.008.002-.008.001-.008.001-.007.001-.008.001-.008.001-.008.002h-.007l-.008.002h-.008l-.008.002-.007.001-.008.001-.008.001-.007.001-.008.001-.008.002h-.008l-.007.002h-.008l-.008.002-.008.001-.007.001-.008.001-.008.001-.008.001-.007.002h-.008l-.008.002h-.007l-.008.002-.008.001-.008.001-.007.001-.008.001-.008.001-.008.002a.178.178 0 0 0-.015.002h-.008l-.008.002-.007.001-.008.001-.008.001-.008.001-.007.001-.008.001-.008.002h-.007a.209.209 0 0 1-.024.004l-.007.001-.008.001-.008.001-.008.001-.007.001-.008.002h-.008l-.008.002a.209.209 0 0 1-.023.003l-.008.001-.007.001-.008.001-.008.001-.007.002h-.008l-.008.002h-.008l-.007.002-.008.001-.008.001-.008.001-.007.001-.008.001-.008.002h-.008l-.007.002h-.008l-.008.002-.008.001-.007.001-.008.001-.008.001-.007.001-.008.002h-.008l-.008.002h-.007l-.008.002-.008.001-.008.001a.238.238 0 0 0-.015.002l-.008.001a.238.238 0 0 0-.023.004h-.008l-.007.002-.008.001-.008.001-.008.001-.007.001-.008.001-.008.002a.238.238 0 0 0-.023.003h-.008l-.008.002-.007.001-.008.001-.008.001-.008.001-.007.001-.008.002h-.008l-.007.002h-.008l-.008.002-.008.001-.007.001-.008.001a.209.209 0 0 1-.016.002l-.007.002h-.008a.178.178 0 0 1-.015.003h-.008l-.008.002-.008.001-.008.001-.007.001a.209.209 0 0 1-.016.002l-.007.002h-.008l-.008.002h-.008l-.007.002-.008.001-.008.001-.008.001-.007.001-.008.002h-.008l-.008.002h-.007l-.008.002-.008.001-.007.001-.008.001-.008.001-.008.001-.007.002h-.008l-.008.002h-.008l-.007.002-.008.001-.008.001-.008.001-.007.001-.008.001-.008.002h-.008a.178.178 0 0 0-.015.003h-.008l-.008.002-.007.001-.008.001-.008.001-.007.001-.008.002h-.008l-.008.002h-.007l-.008.002-.008.001-.008.001-.007.001-.008.001-.008.001-.008.002h-.007a.209.209 0 0 1-.023.004h-.008l-.008.002-.008.001-.007.001-.008.001a.209.209 0 0 1-.016.002l-.007.002a.209.209 0 0 1-.023.003l-.008.001-.008.001-.008.001-.007.001-.008.001-.008.002h-.008l.282 1.98h.007l.008-.001.008-.002h.008l.007-.002h.008l.008-.002.007-.001.008-.001a.209.209 0 0 1 .023-.003l.008-.002h.008a.209.209 0 0 1 .015-.003h.008l.008-.002.008-.001.007-.001.008-.001.008-.001.007-.002h.008l.008-.002h.008l.007-.002.008-.001.008-.001.008-.001.007-.001.008-.001.008-.002h.008l.007-.002h.008l.008-.002.008-.001.007-.001.008-.001.008-.001.007-.001.008-.002h.008l.008-.002h.007l.008-.002a.178.178 0 0 0 .016-.002l.007-.001.008-.001.008-.001.008-.002h.007a.238.238 0 0 0 .016-.003h.008a.238.238 0 0 0 .023-.004l.007-.001.008-.001.008-.002h.008l.007-.002h.008l.008-.002.008-.001a.238.238 0 0 0 .015-.002l.008-.001.008-.001a.209.209 0 0 1 .015-.002l.008-.002a.209.209 0 0 1 .023-.003l.008-.001.007-.001.008-.001.008-.001.008-.001.007-.002h.008l.008-.002a.209.209 0 0 1 .023-.003l.008-.001a.178.178 0 0 1 .015-.002l.008-.001.008-.002h.007l.008-.002h.008l.008-.002.007-.001.008-.001.008-.001.008-.001.007-.001.008-.002h.008l.008-.002h.007l.008-.002.008-.001.008-.001.007-.001.008-.001.008-.001.007-.002h.008l.008-.002h.008l.007-.002.008-.001.008-.001.008-.001.007-.001.008-.001.008-.002a.178.178 0 0 0 .015-.002h.008l.008-.002.007-.001.008-.001.008-.001.008-.001.007-.001.008-.001a.238.238 0 0 0 .023-.004h.008l.008-.002.008-.001.007-.001.008-.001.008-.001.008-.001.007-.002h.008l.008-.002a.209.209 0 0 1 .023-.003l.008-.001.007-.001.008-.001.008-.001.008-.002h.007l.008-.002h.008a.209.209 0 0 1 .015-.003l.008-.001.008-.001.008-.001.007-.001.008-.002h.008l.008-.002h.007l.008-.002.008-.001.007-.001.008-.001.008-.001.008-.001.007-.002h.008l.008-.002h.008l.007-.002.008-.001.008-.001.007-.001.008-.001.008-.001.008-.002h.007l.008-.002h.008l.008-.002.007-.001.008-.001.008-.001.008-.001.007-.001.008-.002a.238.238 0 0 0 .023-.003h.008l.008-.002.008-.001.007-.001.008-.001.008-.001.007-.002h.008a.238.238 0 0 0 .023-.004l.008-.001a.178.178 0 0 0 .016-.002l.007-.001.008-.001.008-.002h.008l.007-.002a.178.178 0 0 1 .016-.002h.008l.007-.002.008-.001.008-.001.007-.001a.209.209 0 0 1 .016-.002l.008-.002a.209.209 0 0 1 .023-.003l.008-.001.007-.001.008-.001.008-.001.008-.001a.209.209 0 0 1 .015-.003h.008a.209.209 0 0 1 .023-.004l.008-.001.007-.001.008-.001.008-.001.008-.002h.007l.008-.002h.008l.008-.002.007-.001.008-.001.008-.001.008-.001.007-.001.008-.002h.008l.007-.002h.008l.008-.002.008-.001.007-.001.008-.001.008-.001.008-.001.007-.002h.008l.008-.002h.008l.007-.002.008-.001.008-.001.008-.001.007-.001.008-.001.008-.002h.007l.008-.002h.008l.008-.002.007-.001.008-.001.008-.001.008-.001.007-.001.008-.002h.008a.178.178 0 0 0 .015-.003h.008l.008-.002.008-.001.007-.001.008-.001.008-.001.007-.001.008-.002h.008l.008-.002a.209.209 0 0 1 .023-.003l.008-.001.007-.001a.209.209 0 0 1 .016-.002l.008-.002h.007l.008-.002h.008a.209.209 0 0 1 .023-.004l.008-.001.007-.001.008-.001.008-.002h.008l.007-.002h.008l.008-.002.008-.001.007-.001.008-.001.008-.001.008-.001.007-.002h.008l.008-.002h.008l.007-.002.008-.001.008-.001.007-.001.008-.001.008-.001.008-.002h.007l.008-.002h.008l.008-.002.007-.001.008-.001.008-.001a.238.238 0 0 0 .015-.002l.008-.001a.238.238 0 0 0 .023-.004h.008l.008-.002.007-.001.008-.001.008-.001.008-.001.007-.002h.008a.238.238 0 0 0 .023-.004l.008-.001.008-.001.008-.001.007-.001a.209.209 0 0 1 .023-.004h.008l.008-.002h.008l.007-.002.008-.001.008-.001.008-.001.007-.001a.209.209 0 0 1 .023-.004h.008a.178.178 0 0 1 .016-.003l.008-.001.007-.001.008-.001.008-.001.007-.001.008-.002h.008l.008-.002h.007l.008-.002.008-.001.008-.001.007-.001.008-.001.008-.001.008-.002h.007l.008-.002h.008l.008-.002.007-.001.008-.001.008-.001.007-.001.008-.001.008-.002h.008l.007-.002h.008l.008-.002.008-.001.007-.001a.178.178 0 0 0 .016-.002l.008-.001.007-.002h.008l.008-.002h.008l.007-.002.008-.001.008-.001a.238.238 0 0 0 .023-.003l.008-.002h.007l.008-.002h.008l.008-.002.007-.001.008-.001.008-.001.007-.001.008-.001a.209.209 0 0 1 .023-.004h.008l.008-.002h.008l.007-.002.008-.001.008-.001.008-.001.007-.001a.209.209 0 0 1 .016-.003h.008l.007-.002h.008l.008-.002.008-.001.007-.001.008-.001.008-.001.007-.002h.008l.008-.002h.008l.007-.002.008-.001.008-.001.008-.001.007-.001.008-.001.008-.002h.008l.007-.002h.008l.008-.002.008-.001.007-.001.008-.001.008-.001.007-.001.008-.002h.008l.008-.002h.007l.008-.002.008-.001.008-.001a.238.238 0 0 0 .023-.003l.007-.002h.008l.008-.002h.008l.008-.002.007-.001.008-.001.008-.001a.238.238 0 0 0 .023-.004h.008a.178.178 0 0 0 .015-.003h.008l.008-.002.007-.001.008-.001.008-.001a.238.238 0 0 0 .015-.002l.008-.002h.008l.007-.002-.28-1.98Zm-4.762 1.892c.261.722.682 1.333 1.274 1.796l1.232-1.575c-.267-.21-.479-.497-.624-.9l-1.882.68Zm1.281 1.801c.628.483 1.367.711 2.168.711v-2c-.403 0-.703-.107-.95-.297l-1.218 1.586Zm2.168.711c.436 0 .88-.081 1.323-.223l-.608-1.905a2.37 2.37 0 0 1-.715.128v2Zm1.317-.221a9.86 9.86 0 0 0 1.24-.482l-.848-1.812a7.862 7.862 0 0 1-.988.385l.596 1.909Zm1.255-.49c.393-.192.77-.398 1.133-.617l-1.035-1.711a12.9 12.9 0 0 1-.977.532l.88 1.796Zm1.133-.617c.346-.209.65-.402.91-.578l-1.121-1.656c-.224.152-.498.326-.824.523l1.035 1.711Zm-.645-1.511-.563 5.32 1.99.21.562-5.32-1.99-.21ZM30.02 17.2c-.243.186-.51.347-.801.48l.83 1.82a6.103 6.103 0 0 0 1.19-.715L30.02 17.2Zm-.81.484a5.601 5.601 0 0 1-.934.338l.513 1.933c.439-.117.861-.27 1.268-.459l-.846-1.812Zm-.934.338a7.44 7.44 0 0 1-1.023.196l.238 1.986c.438-.053.87-.136 1.298-.25l-.513-1.932Zm-1.023.196a8.648 8.648 0 0 1-1.03.063v2c.417 0 .84-.026 1.268-.077l-.238-1.986Zm-1.03.063a5.757 5.757 0 0 1-1.808-.266l-.625 1.9a7.75 7.75 0 0 0 2.434.366v-2Zm-1.808-.266a5.428 5.428 0 0 1-1.476-.742l-1.165 1.626a7.46 7.46 0 0 0 2.016 1.016l.625-1.9Zm-1.462-.732a5.73 5.73 0 0 1-1.159-1.149L20.2 17.342c.447.59.968 1.107 1.56 1.547l1.193-1.606Zm-1.159-1.149a6.84 6.84 0 0 1-.849-1.473l-1.841.78a8.829 8.829 0 0 0 1.096 1.901l1.594-1.208Zm-.849-1.473a8.748 8.748 0 0 1-.525-1.736l-1.963.384c.146.744.36 1.456.646 2.131l1.842-.779Zm-.525-1.736a9.73 9.73 0 0 1-.18-1.87h-2c0 .76.072 1.51.217 2.254l1.963-.384Zm-.18-1.87c0-.666.06-1.332.182-2l-1.967-.36a13.096 13.096 0 0 0-.216 2.36h2Zm.182-2c.122-.664.303-1.3.544-1.91l-1.86-.735c-.29.734-.507 1.496-.651 2.285l1.967.36Zm.54-1.9a8.125 8.125 0 0 1 .908-1.66l-1.63-1.162A10.13 10.13 0 0 0 19.11 6.4l1.852.754Zm.907-1.659c.36-.503.775-.937 1.246-1.307l-1.236-1.573a8.362 8.362 0 0 0-1.636 1.716l1.626 1.164Zm1.246-1.307a5.431 5.431 0 0 1 1.566-.851l-.665-1.887a7.43 7.43 0 0 0-2.137 1.165l1.236 1.573Zm1.563-.85a5.964 5.964 0 0 1 1.968-.308v-2c-.933 0-1.812.136-2.626.42l.658 1.888Zm1.968-.308c.601 0 1.123.085 1.574.24l.648-1.893a6.828 6.828 0 0 0-2.223-.347v2Zm1.59.244c.477.155.885.37 1.232.638L30.69 2.33a6.024 6.024 0 0 0-1.837-.957l-.617 1.902Zm1.248.65c.365.27.68.595.948.977l1.638-1.147a6.211 6.211 0 0 0-1.395-1.437l-1.191 1.606Zm.954.986c.283.394.516.831.697 1.315l1.873-.702a7.644 7.644 0 0 0-.944-1.778L30.437 4.91Zm.703 1.33a7.54 7.54 0 0 1 .424 1.564l1.974-.32A9.54 9.54 0 0 0 33 5.507l-1.861.734Zm.426 1.578c.1.558.149 1.129.149 1.712h2c0-.698-.06-1.385-.18-2.061l-1.969.349Zm-2.539 1.103c0-.29-.03-.581-.09-.87l-1.96.405c.035.163.05.318.05.465h2Zm-.09-.864a3.037 3.037 0 0 0-.35-.94L26.86 8.125c.048.083.09.188.117.325l1.962-.392Zm-.335-.913a2.284 2.284 0 0 0-.726-.807L26.749 7.99a.286.286 0 0 1 .094.107l1.759-.952Zm-.701-.79a2.063 2.063 0 0 0-1.233-.378v2c.048 0 .071.005.075.007l-.004-.002a.101.101 0 0 1-.015-.01l1.177-1.617Zm-1.233-.378a2.4 2.4 0 0 0-1.41.442l1.157 1.63a.404.404 0 0 1 .253-.072v-2Zm-1.405.438a3.356 3.356 0 0 0-.869.897l1.665 1.11a1.36 1.36 0 0 1 .35-.368l-1.146-1.639Zm-.86.886a4.7 4.7 0 0 0-.537 1.04l1.877.692c.082-.222.185-.42.308-.6l-1.648-1.132Zm-.537 1.04a7.27 7.27 0 0 0-.284.953l1.953.428a5.31 5.31 0 0 1 .208-.689l-1.877-.691Zm.787 2.162 3.469-.328-.189-1.99-3.469.327.189 1.991Zm4.374-1.323v-.258h-2v.258h2Zm15.91 6.597-.901-.432-.002.003.904.43ZM43.414 17.7l.615.788h.002l-.617-.788Zm-2.262 1.113.264.965.005-.001-.269-.963Zm-4.043.2-.218.976h.003l.215-.976Zm-1.382-.375-.317.948.008.003.007.002.302-.953Zm-1.36-.492-.386.922.01.004.01.004.366-.93Zm-1.148-.504-.994-.112-.08.715.652.303.422-.906Zm.515-4.594.515-.858-1.335-.8-.173 1.546.993.112Zm2.203.914-.253.967.011.003.242-.97Zm2.93.293.037 1 .019-.002h.018l-.074-.998Zm.598-.106.28.96.012-.003.013-.004-.305-.953Zm.55-1.148-.759.65.012.015.013.013.735-.678Zm-.363-.258-.428.904.02.01.02.008.388-.922Zm-.504-.152-.204.979.02.004.02.003.164-.986Zm-3.27-.422-.359.933.005.002.355-.935Zm-1.417-.89-.707.707.007.007.007.006.693-.72Zm-.914-1.407-.93.367.001.005.929-.372Zm.223-4.312-.891-.455-.002.004.892.45Zm1.488-1.864.635.773.001-.001-.636-.772Zm5.824-1.547-.077.997.01.001h.01l.057-.998Zm1.207.141-.174.985h.003l.171-.985Zm2.273.68.996.093.065-.695-.63-.3-.43.902Zm-.445 4.758-.32.947 1.198.405.118-1.26-.996-.092Zm-1.676-.446-.21.978.007.001.007.002.196-.98Zm-2.097-.176v1h.047l-.047-1Zm-.504.036.09.996.02-.002.02-.003-.13-.991Zm-1.008.246.406.914.02-.01.021-.01-.447-.894Zm-.457.644.999-.045V7.98l-.999.052Zm.188.399-.625.78.012.01.012.01.6-.8Zm.468.21-.242.97.023.007.023.004.196-.98Zm1.325.047.034 1h.017l.017-.002-.069-.998Zm.632-.035.04 1 .02-.001.02-.002-.08-.997Zm3.434 1.29-.737.675.007.008.73-.684Zm.797 1.347-.946.325.003.008.003.009.94-.342ZM44.5 13c0 .955-.167 1.726-.464 2.345l1.803.865c.453-.944.661-2.024.661-3.21h-2Zm-.466 2.348a4.274 4.274 0 0 1-1.236 1.564l1.233 1.575a6.273 6.273 0 0 0 1.81-2.28l-1.807-.859ZM42.8 16.912c-.527.411-1.16.727-1.916.938l.538 1.927c.98-.274 1.854-.7 2.608-1.288L42.8 16.91Zm-1.91.937c-.764.208-1.6.316-2.514.316v2c1.071 0 2.086-.127 3.04-.387l-.526-1.93Zm-2.514.316a4.95 4.95 0 0 1-1.05-.129l-.43 1.953a6.913 6.913 0 0 0 1.48.176v-2Zm-1.047-.128a15.644 15.644 0 0 1-1.3-.353l-.603 1.907c.494.157.983.29 1.466.398l.437-1.952Zm-1.285-.348c-.453-.151-.89-.31-1.31-.474l-.731 1.861c.454.179.924.349 1.408.51l.633-1.897Zm-1.29-.466c-.42-.176-.791-.339-1.112-.488l-.844 1.813c.35.163.745.337 1.184.52l.772-1.845Zm-.54.53.515-4.594-1.987-.223-.516 4.594 1.987.223Zm-.993-3.848a9.366 9.366 0 0 0 2.464 1.024l.507-1.934a7.39 7.39 0 0 1-1.942-.805l-1.03 1.715Zm2.475 1.027c.886.222 1.764.335 2.633.335v-2c-.694 0-1.41-.09-2.148-.275l-.485 1.94Zm2.633.335c.165 0 .358-.005.576-.013l-.074-1.998c-.203.007-.37.01-.502.01v2Zm.613-.015a3.86 3.86 0 0 0 .804-.143l-.56-1.92a1.885 1.885 0 0 1-.392.069l.148 1.994Zm.829-.15c.306-.098.597-.25.849-.472l-1.324-1.5a.375.375 0 0 1-.135.067l.61 1.905Zm.849-.472c.397-.35.537-.821.537-1.254h-2c0 .01-.001-.023.02-.078a.449.449 0 0 1 .12-.168l1.323 1.5Zm.537-1.254c0-.38-.128-.753-.406-1.053l-1.47 1.356a.484.484 0 0 1-.124-.303h2Zm-.381-1.026a1.958 1.958 0 0 0-.735-.528l-.776 1.843c.013.005.015.008.012.005a.123.123 0 0 1-.02-.018l1.519-1.302Zm-.695-.51a2.906 2.906 0 0 0-.767-.236l-.329 1.973a.94.94 0 0 1 .24.07l.856-1.808Zm-.728-.228a5.672 5.672 0 0 0-.668-.1l-.173 1.993c.138.012.282.033.433.065l.408-1.958Zm-.668-.1a6.817 6.817 0 0 0-.59-.027v2c.123 0 .262.007.417.02l.173-1.992Zm-.59-.027h-.376v2h.375v-2Zm-.375 0a4.142 4.142 0 0 1-1.485-.25l-.71 1.869c.682.26 1.417.381 2.195.381v-2Zm-1.48-.249a3.205 3.205 0 0 1-1.085-.679l-1.386 1.442c.5.48 1.088.847 1.751 1.103l.72-1.866Zm-1.071-.665a3.132 3.132 0 0 1-.693-1.07l-1.857.742c.266.665.643 1.25 1.136 1.742l1.414-1.414Zm-.69-1.066a3.978 3.978 0 0 1-.26-1.473h-2c0 .782.128 1.522.399 2.207l1.86-.734Zm-.26-1.473c0-.786.156-1.452.444-2.021l-1.785-.902c-.447.884-.658 1.866-.658 2.923h2Zm.442-2.018a4.796 4.796 0 0 1 1.233-1.545l-1.27-1.545a6.795 6.795 0 0 0-1.744 2.18l1.781.91Zm1.234-1.546a5.748 5.748 0 0 1 1.83-1.008l-.643-1.894a7.747 7.747 0 0 0-2.46 1.359l1.273 1.543Zm1.83-1.008a6.706 6.706 0 0 1 2.174-.357v-2c-.967 0-1.908.154-2.817.463l.643 1.894Zm2.174-.357c.356 0 .725.014 1.107.043l.154-1.994c-.43-.033-.85-.05-1.26-.05v2Zm1.126.045c.368.021.731.063 1.091.127l.348-1.97a11.377 11.377 0 0 0-1.323-.154l-.116 1.997Zm1.094.127c.373.065.733.147 1.08.246l.55-1.923c-.419-.12-.848-.217-1.288-.293l-.342 1.97Zm1.08.246c.332.095.642.212.934.351l.861-1.805a7.972 7.972 0 0 0-1.246-.469l-.55 1.923Zm.369-.644-.446 4.757 1.992.187.445-4.758-1.991-.186Zm.87 3.903a14.474 14.474 0 0 0-1.8-.478l-.392 1.96c.547.11 1.064.248 1.552.413l.64-1.895Zm-1.784-.475a9.026 9.026 0 0 0-1.91-.21v2c.478 0 .974.054 1.487.165l.423-1.955Zm-1.91-.21a9.7 9.7 0 0 0-.447.013l.095 1.997c.157-.007.272-.01.351-.01v-2Zm-.4.011c-.205 0-.417.016-.633.044l.26 1.983c.143-.018.267-.027.374-.027v-2Zm-.594.04c-.215.02-.432.053-.649.1l.425 1.955a3.18 3.18 0 0 1 .405-.063l-.18-1.992Zm-.649.1a3.039 3.039 0 0 0-.715.247l.894 1.79c.055-.028.134-.058.246-.082L39.1 6.245Zm-.674.228a1.873 1.873 0 0 0-.72.554l1.572 1.235a.184.184 0 0 1-.032.033c-.01.007-.014.008-.008.006l-.812-1.828Zm-.72.554c-.246.313-.35.685-.33 1.057l1.998-.105a.458.458 0 0 1-.095.284l-1.573-1.236Zm-.33 1.05c.019.412.186.833.562 1.134l1.25-1.562a.53.53 0 0 1 .145.185c.033.072.04.128.041.152l-1.998.09Zm.587 1.153c.253.19.539.309.826.38l.485-1.94c-.088-.021-.115-.043-.111-.04l-1.2 1.6Zm.872.391c.268.054.545.078.83.078v-2a2.23 2.23 0 0 1-.438-.039l-.392 1.961Zm.83.078c.245 0 .486-.004.725-.012l-.069-1.999a19.05 19.05 0 0 1-.657.011v2Zm.76-.014c.218-.015.419-.026.603-.033l-.08-1.999c-.206.008-.427.02-.661.037l.137 1.995Zm.643-.036a2.44 2.44 0 0 1 .338-.01l.125-1.996a4.476 4.476 0 0 0-.623.013l.16 1.993Zm.338-.01a3.79 3.79 0 0 1 1.337.31l.826-1.82a5.777 5.777 0 0 0-2.038-.486l-.125 1.996Zm1.337.31c.387.176.696.4.942.668l1.474-1.351a4.843 4.843 0 0 0-1.59-1.138l-.826 1.822Zm.95.676c.247.264.443.589.58.989l1.892-.65a4.695 4.695 0 0 0-1.014-1.707l-1.459 1.368Zm.586 1.006c.142.392.221.845.221 1.369h2c0-.726-.109-1.413-.342-2.053l-1.879.684Zm14.112-9.154 1 .023.023-1.025-1.025.002.002 1Zm-.118 4.968.04 1 .938-.038.022-.938-1-.024Zm-3.492.14-.04-.998-.923.037-.036.923 1 .039Zm-.422 10.876.052.999.912-.048.036-.912-1-.04Zm-4.945.258-1 .04.042 1.011 1.01-.053-.052-.998ZM48.97 7.844l.999-.041-.042-1.012-1.01.054.053.999Zm-3.492.187-1-.025-.028 1.082 1.081-.058-.053-.999Zm.14-5.531-.002-1-.973.002-.025.973 1 .025Zm11.774-.047-.117 4.969 2 .047.116-4.969-2-.047Zm.842 3.993-3.492.14.08 2 3.493-.142-.08-1.998Zm-4.451 1.101-.422 10.875 1.999.078.422-10.875-1.999-.078Zm.525 9.915-4.945.258.104 1.997 4.945-.257-.104-1.998Zm-3.894 1.216-.445-10.875-1.998.082.445 10.875 1.998-.082ZM48.915 6.845l-3.492.188.107 1.997 3.492-.188-.107-1.997Zm-2.439 1.212.14-5.532-1.998-.05-.141 5.53 2 .052ZM45.62 3.5l12.773-.023-.003-2-12.774.023.004 2Zm30.537-1.023 1 .023.024-1.025-1.026.002.002 1Zm-.117 4.968.04 1 .938-.038.022-.938-1-.024Zm-3.492.14-.04-.998-.924.037-.035.923.999.039Zm-.422 10.876.052.999.912-.048.035-.912-.999-.04Zm-4.945.258-1 .04.042 1.011 1.01-.053-.052-.998Zm-.446-10.875 1-.041-.042-1.012-1.011.054.053.999Zm-3.492.187-1-.025-.027 1.082 1.08-.058-.053-.999Zm.14-5.531-.001-1-.973.002-.025.973 1 .025Zm11.774-.047-.117 4.969 2 .047.117-4.969-2-.047ZM76 6.446l-3.492.14.08 2 3.492-.142L76 6.446Zm-4.451 1.101-.422 10.875 1.998.078.422-10.875-1.998-.078Zm.525 9.915-4.945.258.104 1.997 4.945-.257-.104-1.998Zm-3.894 1.216-.445-10.875-1.999.082.445 10.875 1.999-.082Zm-1.5-11.833-3.492.188.107 1.997 3.492-.188-.107-1.997Zm-2.44 1.212.141-5.532-1.999-.05-.14 5.53 1.999.052ZM63.386 3.5l12.773-.023-.004-2-12.773.023.004 2Zm27.443 8.586.97.242v-.002l-.97-.24Zm-.715 1.851-.88-.475-.004.01.884.466Zm-1.125 1.594-.736-.677v.001l.736.676Zm-1.488 1.23-.527-.85-.005.004.532.847Zm-1.793.81.278.96.01-.003-.288-.958Zm-4.078.011-.273.962h.003l.27-.962Zm-1.781-.75-.51.86.01.006.5-.866Zm-1.512-1.172-.72.695.007.006.006.006.707-.707Zm-1.148-1.523-.875.485.004.008.005.007.865-.5Zm-.739-1.805-.966.26.003.01.963-.27Zm-.011-3.996.969.245v-.003l-.97-.242Zm.703-1.852-.88-.475-.005.01.885.465Zm2.59-2.847-.541-.841-.006.003.547.838Zm6.867-.586-.354.935.002.001.352-.936Zm2.39 1.511-.707.708.009.008.698-.715Zm1.535 2.368-.932.36.003.01.93-.37ZM85.72 9.355l-.96.281.004.015.005.014.95-.31Zm-.422-.843-.8.6.004.006.005.006.79-.612Zm-.703-.598-.496.868.014.009.015.007.467-.884Zm-2.684.516-.743-.67-.001.002.744.668Zm-.469.808.942.338.002-.007-.944-.33Zm1.09 3.492-.514.858.01.006.504-.864Zm1.957.036.438.899.01-.005-.448-.894Zm.75-.586.766.642.005-.006.005-.006-.776-.63Zm4.836-2.157a7.57 7.57 0 0 1-.217 1.823l1.942.48a9.568 9.568 0 0 0 .275-2.303h-2Zm-.216 1.82a6.912 6.912 0 0 1-.624 1.619l1.759.951c.353-.654.622-1.35.805-2.085l-1.94-.485Zm-.63 1.628a6.54 6.54 0 0 1-.976 1.383l1.472 1.354a8.535 8.535 0 0 0 1.274-1.804l-1.77-.933Zm-.976 1.384c-.376.409-.801.76-1.279 1.057l1.054 1.7a8.054 8.054 0 0 0 1.698-1.404l-1.473-1.353Zm-1.284 1.06a6.312 6.312 0 0 1-1.55.698l.577 1.915c.73-.22 1.41-.526 2.037-.92l-1.064-1.693Zm-1.539.695a6.395 6.395 0 0 1-1.785.242v2a8.39 8.39 0 0 0 2.34-.321l-.555-1.921Zm-1.785.242a6.428 6.428 0 0 1-1.745-.233l-.54 1.926a8.43 8.43 0 0 0 2.285.307v-2Zm-1.742-.232a6.816 6.816 0 0 1-1.554-.654l-1 1.732a8.813 8.813 0 0 0 2.008.846l.546-1.924Zm-1.545-.649a6.602 6.602 0 0 1-1.314-1.018l-1.414 1.414a8.61 8.61 0 0 0 1.71 1.326l1.018-1.722Zm-1.302-1.006a6.794 6.794 0 0 1-1.002-1.328l-1.731 1a8.8 8.8 0 0 0 1.295 1.718l1.438-1.39Zm-.993-1.314a7.335 7.335 0 0 1-.65-1.589l-1.926.54c.2.713.476 1.387.827 2.02l1.749-.97Zm-.647-1.578a6.698 6.698 0 0 1-.224-1.745h-2c0 .779.097 1.534.292 2.263l1.932-.518Zm-.224-1.745c0-.598.072-1.18.216-1.747l-1.939-.49a9.094 9.094 0 0 0-.277 2.237h2Zm.217-1.75a7.244 7.244 0 0 1 .617-1.627l-1.769-.933a9.238 9.238 0 0 0-.789 2.075l1.94.485Zm.612-1.618c.275-.509.604-.974.988-1.4l-1.484-1.34a9.154 9.154 0 0 0-1.265 1.79l1.76.95Zm.988-1.4c.38-.42.803-.782 1.269-1.086L79.184 2.8c-.612.4-1.166.874-1.66 1.421l1.484 1.34Zm1.263-1.082c.47-.302.976-.537 1.524-.706l-.59-1.911a8.16 8.16 0 0 0-2.015.935l1.081 1.682Zm1.524-.706a5.758 5.758 0 0 1 1.709-.249v-2c-.797 0-1.565.111-2.299.338l.59 1.91Zm1.709-.249c1.029 0 1.938.16 2.74.463l.707-1.87c-1.057-.4-2.21-.593-3.447-.593v2Zm2.742.464c.815.306 1.488.735 2.035 1.283l1.414-1.415c-.765-.765-1.686-1.343-2.746-1.74l-.703 1.872Zm2.044 1.291c.554.541.99 1.206 1.3 2.012l1.866-.72a7.566 7.566 0 0 0-1.77-2.723L88.29 5.278ZM89.594 7.3c.314.788.48 1.69.48 2.723h2c0-1.248-.201-2.407-.621-3.463l-1.859.74Zm-2.723 3.028c0-.438-.066-.867-.201-1.282l-1.902.619c.068.21.103.43.103.663h2Zm-.192-1.253a3.516 3.516 0 0 0-.591-1.175l-1.582 1.224c.105.135.191.301.253.512l1.92-.561Zm-.582-1.163a3.081 3.081 0 0 0-1.036-.882l-.934 1.768c.153.081.273.184.37.314l1.6-1.2Zm-1.007-.866a2.877 2.877 0 0 0-1.446-.366v2c.21 0 .352.044.454.102l.992-1.736Zm-1.446-.366c-.489 0-.963.089-1.401.29l.835 1.818c.139-.064.321-.108.566-.108v-2Zm-1.401.29c-.412.19-.773.454-1.076.79l1.486 1.34c.12-.133.258-.235.425-.311l-.835-1.818Zm-1.077.792c-.299.333-.52.72-.668 1.146l1.887.66c.07-.198.162-.35.27-.47l-1.49-1.336ZM80.5 8.9c-.15.42-.223.86-.223 1.31h2c0-.235.037-.444.106-.634L80.5 8.9Zm-.223 1.31c0 .426.061.846.18 1.26l1.922-.55a2.567 2.567 0 0 1-.102-.71h-2Zm.18 1.26c.123.43.31.83.566 1.193l1.634-1.154a1.926 1.926 0 0 1-.278-.588l-1.923.549Zm.566 1.193c.266.377.599.688.994.925l1.029-1.715a1.266 1.266 0 0 1-.39-.364l-1.633 1.154Zm1.004.931c.453.264.956.383 1.477.383v-2a.9.9 0 0 1-.469-.11l-1.008 1.727Zm1.477.383a3.22 3.22 0 0 0 1.422-.312l-.875-1.799c-.135.066-.31.11-.547.11v2Zm1.431-.317a3.32 3.32 0 0 0 1.07-.838l-1.533-1.285a1.32 1.32 0 0 1-.43.334l.894 1.79Zm1.08-.85c.28-.346.493-.736.638-1.163l-1.892-.646a1.758 1.758 0 0 1-.299.548l1.552 1.261Zm.638-1.163c.146-.426.218-.867.218-1.319h-2c0 .236-.037.458-.11.673l1.892.646Zm19.21-9.147.992.127.153-1.196-1.203.07.058.999Zm-.902 8.215.996.091-.996-.091Zm-.715 8.215.073.997.854-.062.07-.853-.997-.082Zm-4.805.351-.993-.116-.14 1.202 1.206-.088-.073-.998Zm.211-1.804.994.116.375-3.215-2.123 2.442.754.657Zm-.55.468-.533-.846-.008.005-.007.004.548.837Zm-.657.328.317.95.014-.006.014-.005-.345-.939Zm-.726.176.124.992.015-.001.015-.003-.154-.988Zm-.715.035.034-.999h-.02l-.014 1Zm-1.5-.304-.398.917.013.006.385-.923Zm-1.29-.797-.651.758.009.008.643-.766Zm-1.054-1.16-.818.574.004.007.814-.581Zm-.797-1.395-.919.394.004.009.004.009.911-.412Zm-.492-1.5-.977.21.001.008.002.007.974-.225Zm-.129-3.656-.999-.041v.01l1 .03Zm.422-4.524-.988-.156-.001.01.99.146Zm.434-2.132.049-1-.818-.04-.2.794.969.246Zm5.742.164.967.255.337-1.277-1.32.022.016 1Zm-.54 2.05-.967-.252-.002.007.97.245Zm-.468 2.063.98.2v-.002l-.98-.198Zm-.328 5.789-.979.206.003.012.003.012.973-.23Zm.305.785-.863.506.01.018.011.017.842-.54Zm1.382-.047.73.684.005-.005.005-.006-.74-.673Zm1.078-2.52-.973-.229-.003.013.976.217Zm.329-1.757-.99-.15v.01l.99.14Zm.34-3.621-.999-.056v.013l.999.043Zm.058-1.488-1-.036v.018l1 .018Zm-.023-1.934.03-1-1.139-.035.114 1.134.995-.099Zm4.195.047v1h.02l-.02-1Zm.203-.174a232.28 232.28 0 0 0-.906 8.25l1.992.183c.249-2.714.548-5.44.898-8.18l-1.984-.253Zm-.906 8.25a863.95 863.95 0 0 0-.716 8.225l1.994.164c.226-2.755.464-5.49.714-8.206l-1.992-.183Zm.208 7.31-4.805.35.146 1.996 4.805-.352-.146-1.995Zm-3.738 1.464.211-1.804-1.987-.233-.21 1.805 1.986.232Zm-1.537-2.577a1.464 1.464 0 0 1-.33.28l1.066 1.691c.29-.182.55-.401.773-.658l-1.51-1.313Zm-.344.288a2.22 2.22 0 0 1-.453.227l.689 1.877c.303-.111.59-.254.859-.43l-1.095-1.674Zm-.425.217c-.18.06-.368.105-.565.136l.31 1.976c.303-.047.6-.119.888-.215l-.633-1.897Zm-.534.132a3.515 3.515 0 0 1-.557.028l-.069 1.999c.285.01.577-.005.874-.043l-.248-1.984Zm-.576.027a3.017 3.017 0 0 1-1.13-.227l-.77 1.846a5.017 5.017 0 0 0 1.87.381l.03-2Zm-1.118-.222a4.222 4.222 0 0 1-1.043-.645l-1.286 1.531a6.23 6.23 0 0 0 1.534.95l.796-1.836Zm-1.034-.637a5.516 5.516 0 0 1-.893-.984l-1.628 1.163c.358.5.763.947 1.217 1.337l1.304-1.516Zm-.888-.977a7.54 7.54 0 0 1-.704-1.232l-1.823.824c.245.543.542 1.062.89 1.557l1.637-1.149Zm-.697-1.214a7.863 7.863 0 0 1-.436-1.33l-1.95.449c.132.567.314 1.124.548 1.669l1.838-.788Zm-.433-1.316a6.008 6.008 0 0 1-.142-1.266h-2c0 .553.064 1.116.187 1.687l1.955-.421Zm-.142-1.266c0-.693.012-1.409.035-2.149l-2-.062c-.023.76-.035 1.496-.035 2.21h2Zm.034-2.139c.03-.74.08-1.481.15-2.222l-1.992-.185c-.072.775-.124 1.55-.156 2.325l1.998.082Zm.15-2.222c.068-.74.156-1.473.262-2.197l-1.978-.291a43.22 43.22 0 0 0-.276 2.303l1.991.185Zm.26-2.187c.114-.714.252-1.395.416-2.043l-1.939-.49a24.89 24.89 0 0 0-.452 2.221l1.976.312Zm-.602-1.29c.955.047 1.915.09 2.88.13l.08-1.999a336.2 336.2 0 0 1-2.862-.128l-.099 1.997Zm2.88.13c.979.04 1.955.051 2.927.036l-.032-2a49.36 49.36 0 0 1-2.815-.035l-.08 1.999Zm1.944-1.22c-.18.68-.36 1.365-.54 2.054l1.935.505a751 751 0 0 1 .539-2.048l-1.934-.51Zm-.542 2.061a44.805 44.805 0 0 0-.48 2.11l1.961.396a43.4 43.4 0 0 1 .458-2.015l-1.939-.49Zm-.479 2.108A27.68 27.68 0 0 0 96 9.245l1.985.245c.082-.67.191-1.335.327-1.997l-1.96-.4ZM96 9.245c-.091.736-.137 1.48-.137 2.232h2c0-.671.04-1.333.122-1.987L96 9.245Zm-.137 2.232c0 .19.01.444.025.754l1.997-.102c-.015-.3-.022-.514-.022-.652h-2Zm.025.754c.018.356.064.709.137 1.057l1.957-.412a4.824 4.824 0 0 1-.097-.747l-1.997.102Zm.143 1.082c.09.378.224.735.415 1.06l1.725-1.011a1.842 1.842 0 0 1-.194-.51l-1.946.46Zm.436 1.095a1.66 1.66 0 0 0 1.427.787v-2c.026 0 .087.007.155.046.067.037.097.08.1.085l-1.682 1.082Zm1.427.787c.617 0 1.135-.273 1.527-.69l-1.46-1.369a.274.274 0 0 1-.07.06h.003c.003-.001.004 0 0 0v2Zm1.537-.702c.332-.365.594-.816.804-1.318l-1.845-.772c-.15.358-.302.594-.439.745l1.48 1.345Zm.804-1.318a9.85 9.85 0 0 0 .511-1.657l-1.953-.434a7.847 7.847 0 0 1-.403 1.32l1.845.77Zm.508-1.644c.14-.595.255-1.21.345-1.848l-1.98-.28a18.538 18.538 0 0 1-.312 1.668l1.947.46Zm.343-1.838c.097-.638.174-1.28.231-1.926l-1.993-.174a28.493 28.493 0 0 1-.215 1.8l1.977.3Zm.231-1.926c.055-.638.095-1.239.12-1.802l-1.999-.086c-.022.53-.06 1.101-.114 1.714l1.993.174Zm.119-1.789c.032-.564.052-1.073.06-1.527l-2-.035a38.36 38.36 0 0 1-.057 1.45l1.997.112Zm.059-1.509c.016-.441.025-.795.025-1.055h-2c0 .224-.008.55-.023.984l1.998.071Zm.025-1.055c0-.173-.005-.343-.014-.51l-1.997.106c.007.13.01.264.01.404h2.001Zm-.014-.51a9.993 9.993 0 0 0-.038-.503l-1.99.199c.014.141.024.278.031.41l1.997-.106Zm-1.064.596a101.1 101.1 0 0 0 1.527.035l.031-2c-.495-.007-.994-.02-1.497-.035l-.061 2Zm1.527.035c.505.008 1.014.012 1.527.012v-2c-.503 0-1.001-.004-1.496-.012l-.031 2Zm1.527.012h1.172v-2h-1.172v2Zm1.192 0c.411-.008.823-.025 1.234-.049l-.117-1.996c-.386.022-.771.038-1.157.045l.04 2Zm15.449 5.82-.977-.214-.003.012.98.202Zm-2.672 3.516-.534-.846-.803.507.465.828.872-.49Zm2.789 4.969.192.981 1.357-.265-.677-1.206-.872.49Zm-5.274 1.03-.94.34.291.807.841-.165-.192-.981Zm-1.804-4.991.94-.34-.247-.683-.725.023.032 1Zm-1.453.046-.033-.999-.926.03-.04.926.999.043Zm-.211 4.876v1h.957l.042-.957-.999-.044Zm-5.039 0-1-.022-.023 1.021h1.023v-1Zm.105-5.32-1-.023v.005l1 .017Zm.129-5.321 1 .026V8.19l-1-.017Zm.141-5.344-.349-.937-.616.229-.034.656.999.052Zm3.211-.808.131.991.012-.002-.143-.99Zm1.629-.153.042 1 .014-.001-.056-.999Zm4.277.328-.289.958.011.003.278-.96Zm3.75 2.942-.887.462.004.007.883-.47Zm-4.805 2.039-.954.3.004.012.004.012.946-.324Zm-.398-.703-.764.646.014.015.014.016.736-.677Zm-.657-.47-.413.911.016.008.017.007.38-.925Zm-1.371-.14.105.995.026-.003.025-.004-.156-.988Zm-.433.082-.268-.963-.7.194-.031.726.999.043Zm-.188 4.36-.999-.043-.045 1.043h1.044v-1Zm1.301-.13-.237-.97h-.005l.242.97Zm.938-.398-.539-.842-.011.007.55.835Zm.679-.691-.842-.538-.006.008-.005.008.853.522Zm4.52-1.383c0 .55-.05 1.032-.141 1.45l1.954.428a8.82 8.82 0 0 0 .187-1.878h-2Zm-.144 1.462c-.082.401-.214.76-.39 1.082l1.755.96a5.854 5.854 0 0 0 .594-1.638l-1.959-.404Zm-.39 1.082a3.867 3.867 0 0 1-.701.913l1.399 1.43c.425-.416.78-.877 1.057-1.383l-1.755-.96Zm-.701.913a6.78 6.78 0 0 1-1.135.877l1.067 1.692a8.81 8.81 0 0 0 1.467-1.14l-1.399-1.429Zm-1.473 2.212 2.789 4.969 1.744-.979-2.789-4.969-1.744.98Zm3.469 3.498-5.273 1.031.383 1.963 5.274-1.031-.384-1.963Zm-4.141 1.673-1.805-4.992-1.881.68 1.805 4.992 1.881-.68Zm-2.777-5.652-1.454.047.065 1.999 1.453-.047-.064-1.999Zm-2.42 1.003-.211 4.875 1.998.087.211-4.875-1.998-.087Zm.788 3.918h-5.039v2h5.039v-2Zm-4.04 1.022c.04-1.782.075-3.557.106-5.324l-2-.035c-.031 1.764-.066 3.536-.105 5.316l1.999.043Zm.106-5.32c.039-1.764.082-3.536.129-5.316l-2-.052c-.047 1.782-.09 3.557-.129 5.324l2 .044Zm.129-5.325.047-2.671-2-.036-.047 2.672 2 .035Zm.047-2.671c.015-.871.046-1.75.092-2.638l-1.997-.104c-.047.91-.079 1.812-.095 2.706l2 .036Zm-.558-1.752a14.286 14.286 0 0 1 1.511-.472l-.485-1.94c-.569.142-1.143.322-1.723.537l.697 1.875Zm1.511-.472c.496-.123.99-.218 1.483-.283l-.263-1.983c-.569.076-1.138.184-1.705.326l.485 1.94Zm1.495-.285c.506-.073 1.015-.12 1.528-.143l-.085-1.998c-.581.025-1.157.079-1.73.162l.287 1.98Zm1.542-.143c.535-.03 1.083-.046 1.643-.046v-2c-.596 0-1.182.016-1.756.049l.113 1.997Zm1.643-.046c.795 0 1.557.112 2.289.333l.578-1.915a9.876 9.876 0 0 0-2.867-.418v2Zm2.3.336c.725.21 1.349.523 1.883.934l1.219-1.586a7.613 7.613 0 0 0-2.546-1.27l-.556 1.922Zm1.883.934c.523.401.941.9 1.258 1.509l1.774-.925a6.495 6.495 0 0 0-1.813-2.17L117.57 4.09Zm1.262 1.516c.301.567.469 1.256.469 2.097h2c0-1.112-.223-2.134-.703-3.036l-1.766.94Zm-2.781 2.472c0-.424-.061-.836-.195-1.227l-1.892.65c.054.155.087.345.087.577h2Zm-.187-1.202a2.827 2.827 0 0 0-.616-1.08l-1.472 1.354a.836.836 0 0 1 .18.326l1.908-.6Zm-.589-1.05a2.675 2.675 0 0 0-1.039-.747l-.761 1.85a.684.684 0 0 1 .273.19l1.527-1.292Zm-1.006-.732a3.186 3.186 0 0 0-1.328-.266v2c.243 0 .4.04.501.086l.827-1.82Zm-1.328-.266a3.93 3.93 0 0 0-.613.048l.312 1.975c.095-.015.195-.023.301-.023v-2Zm-.561.04a3.644 3.644 0 0 0-.597.114l.535 1.927a1.65 1.65 0 0 1 .271-.051l-.209-1.99Zm-1.328 1.034-.188 4.36 1.998.086.188-4.36-1.998-.086Zm.811 5.403h.282v-2h-.282v2Zm.282 0a5.13 5.13 0 0 0 1.262-.16l-.485-1.94a3.2 3.2 0 0 1-.777.1v2Zm1.257-.158c.45-.11.87-.285 1.249-.534l-1.099-1.671a2 2 0 0 1-.625.262l.475 1.943Zm1.238-.527c.408-.26.742-.6.995-1.013l-1.707-1.043c-.092.15-.21.272-.365.37l1.077 1.686Zm.984-.996c.299-.468.427-.998.427-1.546h-2c0 .233-.052.375-.112.47l1.685 1.076Zm22.56 2.134-.746-.667.746.667Zm-1.383 1.113.488.873.009-.005-.497-.868Zm-1.711.738.297.955.008-.002-.305-.953Zm-1.875.422.131.992.012-.002-.143-.99Zm-1.91.14-.013-.999-.987.012v.988h1Zm0 4.993v1h1v-1h-1Zm-5.461 0h-1v1h1v-1Zm0-2.602-1-.009v.01h1Zm.011-2.507-1-.01v.01h1Zm.012-2.52-1-.01v.01h1Zm.024-2.613-1-.017v.008l1 .009Zm.07-5.742-.285-.959-.68.202-.034.708.999.049Zm7.898-.739-.166.987.012.001.154-.988Zm1.723.457-.36.933.005.002.355-.935Zm1.535.797-.564.826.008.005.008.006.548-.837Zm2.039 2.625-.944.328.004.012.94-.34Zm-5.367 1.09-.688.726.009.009.01.008.669-.743Zm-1.711-.387.135.991.018-.002.018-.003-.171-.986Zm-.492.094-.243-.97-.725.182-.031.747.999.041Zm-.141 3.422-.999-.041-.037.903.895.128.141-.99Zm1.442-.117-.333-.943-.009.003.342.94Zm.703-.399.646.764.008-.007.008-.008-.662-.749Zm.48-.62-.888-.46-.006.012.894.447Zm4.391-1.208c0 .66-.099 1.205-.273 1.655l1.866.722c.279-.722.407-1.52.407-2.377h-2Zm-.273 1.655c-.185.48-.436.89-.75 1.241l1.491 1.334a6 6 0 0 0 1.125-1.853l-1.866-.722Zm-.75 1.242a4.505 4.505 0 0 1-1.135.912l.995 1.735a6.537 6.537 0 0 0 1.632-1.315l-1.492-1.332Zm-1.125.906c-.47.263-.979.483-1.528.66l.61 1.904a10.35 10.35 0 0 0 1.894-.818l-.976-1.746Zm-1.521.657c-.549.17-1.122.3-1.72.386l.286 1.98a13.119 13.119 0 0 0 2.029-.457l-.595-1.91Zm-1.709.385c-.61.08-1.207.125-1.791.132l.025 2a17.05 17.05 0 0 0 2.029-.15l-.263-1.982Zm-2.778 1.132v4.992h2v-4.992h-2Zm1 3.992h-5.461v2h5.461v-2Zm-4.461 1v-2.602h-2v2.602h2Zm0-2.592c.008-.847.011-1.686.011-2.517h-2c0 .825-.003 1.658-.011 2.498l2 .019Zm.011-2.508c.008-.839.012-1.682.012-2.529h-2c0 .84-.004 1.678-.011 2.51l1.999.019Zm.012-2.52.024-2.613-2-.018-.024 2.613 2 .018Zm.023-2.606c.016-.961.02-1.922.012-2.884l-2 .017c.008.945.004 1.89-.011 2.834l1.999.033Zm.012-2.884c-.007-.934.012-1.876.058-2.826l-1.998-.097a51.75 51.75 0 0 0-.06 2.94l2-.017Zm-.656-1.916c.956-.284 1.91-.496 2.862-.637l-.294-1.978a22.77 22.77 0 0 0-3.138.698l.57 1.917Zm2.862-.637a20.03 20.03 0 0 1 2.947-.212v-2c-1.109 0-2.19.078-3.241.234l.294 1.978Zm2.947-.212a9.86 9.86 0 0 1 1.638.138l.333-1.972a11.823 11.823 0 0 0-1.971-.166v2Zm1.65.14a7.343 7.343 0 0 1 1.517.402l.72-1.866a9.335 9.335 0 0 0-1.929-.512l-.308 1.976Zm1.522.404c.484.184.925.414 1.326.688l1.128-1.651a8.305 8.305 0 0 0-1.744-.906l-.71 1.87Zm1.342.699c.388.254.717.556.992.906l1.573-1.236a6.12 6.12 0 0 0-1.468-1.343l-1.097 1.673Zm.992.906c.271.345.489.745.651 1.21l1.889-.656a6.123 6.123 0 0 0-.967-1.79l-1.573 1.236Zm.655 1.222c.158.439.245.947.245 1.535h2c0-.786-.116-1.528-.364-2.214l-1.881.679Zm-2.958 1.934c0-.728-.233-1.417-.8-1.927l-1.338 1.486c.059.053.138.152.138.44h2Zm-.781-1.91c-.522-.495-1.182-.707-1.883-.707v2c.283 0 .419.076.507.159l1.376-1.451Zm-1.883-.707c-.228 0-.457.021-.687.061l.342 1.97c.13-.022.244-.031.345-.031v-2Zm-.651.056a5.639 5.639 0 0 0-.6.114l.485 1.94c.119-.03.247-.054.385-.073l-.27-1.981Zm-1.356 1.043-.141 3.422 1.998.082.141-3.422-1.998-.082Zm.717 4.453c.152.022.305.034.458.034v-2c-.051 0-.109-.004-.175-.014l-.283 1.98Zm.458.034h.316v-2h-.316v2Zm.316 0c.395 0 .78-.067 1.15-.201l-.683-1.88a1.35 1.35 0 0 1-.467.08v2Zm1.142-.198a3.223 3.223 0 0 0 1.016-.578l-1.292-1.527a1.221 1.221 0 0 1-.39.219l.666 1.886Zm1.032-.593a3.05 3.05 0 0 0 .713-.922l-1.789-.895a1.043 1.043 0 0 1-.249.32l1.325 1.497Zm.707-.911a2.73 2.73 0 0 0 .299-1.267h-2a.745.745 0 0 1-.076.35l1.777.917Zm15.447 2.928.996.094.103-1.094h-1.099v1Zm-.492 5.203.078.997.838-.066.08-.837-.996-.094Zm-9.867.774-1-.023-.025 1.106 1.103-.086-.078-.997Zm.375-16.735v-1h-.978l-.022.978 1 .022Zm6.094 0 .996.08.087-1.08h-1.083v1Zm-.868 10.758-.996-.08-.087 1.08h1.083v-1Zm3.763-.094-.492 5.203 1.991.188.492-5.203-1.991-.188Zm.425 4.3-9.867.774.156 1.994 9.867-.774-.156-1.994Zm-8.789 1.793.375-16.734-2-.045-.375 16.734 2 .045Zm-.625-15.757h6.094v-2h-6.094v2Zm5.097-1.08-.867 10.758 1.993.16.867-10.757-1.993-.161Zm.129 11.838h4.758v-2h-4.758v2Zm20.086 4.203.128.992 1.158-.15-.325-1.12-.961.278Zm-5.812.75-.967.257.225.847.87-.112-.128-.992Zm-.703-2.648.966-.257-.197-.743h-.769v1Zm-2.672 0v-1h-.803l-.174.784.977.216Zm-.586 2.648-.098.995.883.087.191-.866-.976-.216Zm-5.977-.586-.958-.286-.347 1.163 1.208.118.097-.995Zm4.664-15.61-.05-.998-.705.036-.203.677.958.286Zm6.516-.327.961-.279-.221-.76-.79.04.05.999Zm-2.367 10.289v1h1.242l-.265-1.213-.977.213Zm-.891-4.078.977-.214-1.955.006.978.208Zm-.867 4.078-.978-.208-.257 1.208h1.235v-1ZM165.606 17l-5.812.75.256 1.984 5.812-.75-.256-1.984Zm-4.718 1.486-.703-2.649-1.933.513.703 2.649 1.933-.513Zm-1.669-3.392h-2.672v2h2.672v-2Zm-3.649.784-.585 2.648 1.952.432.586-2.648-1.953-.432Zm.489 1.869-5.977-.586-.195 1.99 5.976.586.196-1.99Zm-5.116.695 4.664-15.609-1.917-.572-4.664 15.609 1.917.572Zm3.756-14.896 6.515-.329-.1-1.997-6.516.328.101 1.998Zm5.505-1.049 4.57 15.773 1.921-.556-4.57-15.774-1.921.557Zm-.43 9.797-.891-4.078-1.954.427.891 4.078 1.954-.427Zm-2.846-4.072-.867 4.078 1.956.416.867-4.078-1.956-.416Zm.111 5.286h1.758v-2h-1.758v2Zm23.449 2.187-.999-.027-.001.01 1 .017Zm-.082 2.602-.017 1 .973.017.043-.973-.999-.044Zm-6.75-.117-.986-.167-.194 1.146 1.163.02.017-1Zm.61-4.137.992.124-.992-.124Zm.199-5.438-.997.081v.003l.997-.084Zm-.106-.878-.992.127.002.014.003.015.987-.156Zm-.175-.832-.963.27.004.014.004.014.955-.298Zm-.27-.61-.85.527.015.023.016.024.819-.574Zm-1.055-.012-.64-.768-.008.007-.008.007.656.754Zm-.457.61-.894-.447-.006.011.9.436Zm-.445 1.734-.992-.127-.001.013-.002.012.995.102Zm-.07.867-.999-.057v.014l-.001.014 1 .03Zm-.012.657 1 .028v-.028h-1Zm-.094 4.125 1 .017-1-.017Zm-.093 4.125.043.999.93-.04.026-.931-.999-.028Zm-5.977.257-.998-.056-.063 1.103 1.104-.047-.043-1Zm.445-8.226-.998-.055v.003l.998.052Zm.352-8.227-.051-.998-.92.046-.029.921 1 .031Zm5.531-.28 1 .024.027-1.078-1.078.054.051 1Zm-.047 1.874-1-.025-.072 2.9 1.844-2.24-.772-.635Zm.703-.75-.672-.74-.006.005-.006.006.684.73Zm.821-.598.493.87.009-.005.009-.005-.511-.86Zm.914-.398.281.96.007-.002.007-.003-.295-.955Zm4.968 2.402-.905.425.003.006.902-.43Zm.926 3.446-.992.122v.002l.992-.124Zm.153 1.851-1 .039.001.012.999-.05Zm-.954 3.328c0 .874-.011 1.74-.034 2.598l1.999.054c.024-.876.035-1.76.035-2.652h-2Zm-.035 2.607a94.22 94.22 0 0 1-.081 2.575l1.998.09c.04-.884.067-1.76.083-2.628l-2-.037Zm.936 1.62-6.75-.117-.035 2 6.75.117.035-2Zm-5.782 1.05c.237-1.397.442-2.79.616-4.18l-1.985-.248a94.906 94.906 0 0 1-.603 4.094l1.972.334Zm.616-4.18c.177-1.425.265-2.86.265-4.308h-2c0 1.366-.083 2.72-.25 4.06l1.985.247Zm.265-4.308c0-.12-.004-.299-.012-.526l-1.999.069c.008.225.011.374.011.457h2Zm-.012-.526a15.622 15.622 0 0 0-.05-.81l-1.993.166c.023.268.037.506.044.713l1.999-.07Zm-.049-.808a12.762 12.762 0 0 0-.115-.954l-1.975.312c.043.272.075.54.096.803l1.994-.161Zm-.111-.926a5.864 5.864 0 0 0-.213-1.003l-1.909.597c.058.185.106.404.138.66l1.984-.254Zm-.205-.975a2.975 2.975 0 0 0-.413-.912l-1.638 1.147c.026.037.076.128.126.306l1.925-.541Zm-.382-.865c-.222-.359-.627-.72-1.225-.72v2a.638.638 0 0 1-.344-.102.431.431 0 0 1-.131-.125l1.7-1.053Zm-1.225-.72a2.03 2.03 0 0 0-1.32.466l1.281 1.537c.002-.002.002-.002 0 0l-.004.001c-.002 0 .009-.004.043-.004v-2Zm-1.336.48c-.294.256-.522.57-.695.917l1.789.894a.942.942 0 0 1 .219-.302l-1.313-1.51Zm-.701.928c-.154.32-.271.665-.355 1.031l1.948.45c.057-.243.128-.444.208-.61l-1.801-.87Zm-.355 1.031c-.078.337-.139.674-.182 1.012l1.984.254c.035-.27.083-.543.146-.816l-1.948-.45Zm-.185 1.037c-.032.318-.057.622-.074.912l1.997.114c.015-.256.037-.53.067-.822l-1.99-.204Zm-.075.94c-.008.27-.012.5-.012.686h2c0-.159.004-.367.011-.627l-1.999-.059Zm-.012.657c-.039 1.387-.07 2.766-.094 4.136l2 .035c.023-1.364.055-2.735.094-4.114l-2-.057Zm-.094 4.136a369.21 369.21 0 0 1-.093 4.115l1.999.056c.039-1.395.071-2.773.094-4.136l-2-.035Zm.863 3.144-5.976.257.086 1.998 5.977-.257-.087-1.998Zm-4.935 1.313c.157-2.76.305-5.503.446-8.232l-1.997-.103c-.141 2.725-.289 5.466-.445 8.222l1.996.113Zm.446-8.229c.149-2.734.266-5.484.352-8.25l-1.999-.062a349.6 349.6 0 0 1-.35 8.203l1.997.11Zm-.596-7.282 5.531-.281-.102-1.998-5.531.282.102 1.997Zm4.48-1.305-.047 1.875 2 .05.047-1.875-2-.05Zm1.725 2.536c.192-.233.397-.451.615-.656l-1.368-1.46a9.051 9.051 0 0 0-.791.844l1.544 1.272Zm.604-.646c.206-.187.419-.342.641-.468l-.987-1.74a5.593 5.593 0 0 0-.999.728l1.345 1.48Zm.659-.478a2.95 2.95 0 0 1 .684-.298l-.562-1.92a4.933 4.933 0 0 0-1.144.499l1.022 1.719Zm.698-.303a2.47 2.47 0 0 1 .736-.107v-2c-.455 0-.899.064-1.327.197l.591 1.91Zm.736-.107c.555 0 .996.091 1.345.244l.802-1.832c-.651-.285-1.374-.412-2.147-.412v2Zm1.345.244c.386.169.705.391.968.666l1.444-1.384a4.966 4.966 0 0 0-1.61-1.114l-.802 1.832Zm.968.666c.277.29.519.643.719 1.07l1.811-.85a5.97 5.97 0 0 0-1.086-1.604l-1.444 1.384Zm.722 1.075c.213.446.386.928.52 1.447l1.937-.497a9.943 9.943 0 0 0-.652-1.811l-1.805.86Zm.52 1.447c.137.534.243 1.097.316 1.69l1.985-.245a15.346 15.346 0 0 0-.364-1.942l-1.937.497Zm.316 1.692c.075.597.123 1.186.145 1.766l1.999-.077a22.624 22.624 0 0 0-.16-1.937l-1.984.248Zm.146 1.778c.03.594.045 1.167.045 1.719h2c0-.589-.016-1.196-.048-1.821l-1.997.102Zm.045 1.719v1.558h2v-1.558h-2Z" fill="#000"/></g><defs><filter id="a" x=".62" y=".82" width="184.903" height="27.547" filterUnits="userSpaceOnUse" color-interpolation-filters="sRGB"><feFlood flood-opacity="0" result="BackgroundImageFix"/><feColorMatrix in="SourceAlpha" values="0 0 0 0 0 0 0 0 0 0 0 0 0 0 0 0 0 0 127 0" result="hardAlpha"/><feOffset dy="4"/><feGaussianBlur stdDeviation="2"/><feComposite in2="hardAlpha" operator="out"/><feColorMatrix values="0 0 0 0 0 0 0 0 0 0 0 0 0 0 0 0 0 0 0.25 0"/><feBlend in2="BackgroundImageFix" result="effect1_dropShadow"/><feColorMatrix in="SourceAlpha" values="0 0 0 0 0 0 0 0 0 0 0 0 0 0 0 0 0 0 127 0" result="hardAlpha"/><feOffset dy="4"/><feGaussianBlur stdDeviation="2"/><feComposite in2="hardAlpha" operator="out"/><feColorMatrix values="0 0 0 0 0 0 0 0 0 0 0 0 0 0 0 0 0 0 0.25 0"/><feBlend in2="effect1_dropShadow" result="effect2_dropShadow"/><feBlend in="SourceGraphic" in2="effect2_dropShadow" result="shape"/></filter></defs></svg>